PathFileType	4	(X/Y/Z)	1H_nor_fast_left.trc
DataRate	CameraRate	NumFrames	NumMarkers	Units	OrigDataRate	OrigDataStartFrame	OrigNumFrames
250.00	250.00	7	18	mm	250.00	1	7622
Frame#	Time	c7	r_should	r_elb_m	clavicle	r_upa	r_wri_m	l_upa	l_elb_l	l_low	l_wri_l	l_met	l_elb_m	r_elb_l	l_should	r_low	r_wri_l	r_met	l_wri_m
	X1	Y1	Z1	X2	Y2	Z2	X3	Y3	Z3	X4	Y4	Z4	X5	Y5	Z5	X6	Y6	Z6	X7	Y7	Z7	X8	Y8	Z8	X9	Y9	Z9	X10	Y10	Z10	X11	Y11	Z11	X12	Y12	Z12	X13	Y13	Z13	X14	Y14	Z14	X15	Y15	Z15	X16	Y16	Z16	X17	Y17	Z17	X18	Y18	Z18
1	0.00000	1181.05176	1421.68567	125.62009	1231.64062	1340.06482	282.22675	1147.66724	1014.35651	291.30475	1283.00476	1274.43481	104.85777	nan	nan	nan	1178.90234	782.16144	368.64609	1158.12329	1144.99280	-104.48320	1154.34436	1036.97290	-119.72984	1154.15161	913.89215	-113.99206	1169.57617	794.69885	-90.59209	1144.62988	720.69763	-134.58783	1116.04602	1030.92188	-25.23400	1218.36536	1039.06531	353.10870	1186.69775	1360.05872	-51.94481	1234.95374	904.47247	353.38068	1252.26807	778.15149	340.59183	1253.34851	715.14447	387.37280	1091.43176	795.05701	-88.56709
2	0.00400	1180.42188	1421.67432	125.69318	1231.25610	1340.16992	282.28299	1147.35938	1014.44958	291.36771	1282.60181	1274.56970	104.88781	nan	nan	nan	1178.61951	782.21918	368.55899	1157.73364	1144.96924	-104.40272	1154.08130	1036.93604	-119.64868	1153.99133	913.86847	-113.92033	1169.27100	794.97528	-90.90974	1144.62866	720.67194	-134.55879	1115.88354	1030.85364	-25.10748	1218.13086	1039.13879	353.07724	1186.11401	1360.06848	-51.87041	1234.71826	904.52985	353.29562	1251.96692	778.17883	340.45001	1253.06445	715.16357	387.19757	1091.41272	794.96820	-88.47398
3	0.00800	1179.80725	1421.66260	125.76152	1230.86951	1340.27173	282.35657	1147.05396	1014.54352	291.43329	1282.20386	1274.70105	104.92785	nan	nan	nan	1178.33691	782.29425	368.47632	1157.34644	1144.93945	-104.31473	1153.81348	1036.89551	-119.56324	1153.83032	913.84351	-113.85410	1168.88647	795.33801	-91.33499	1144.62659	720.62604	-134.51657	1115.71985	1030.77625	-24.98306	1217.91394	1039.19775	353.05399	1185.53418	1360.07654	-51.79303	1234.47278	904.57635	353.20755	1251.67566	778.19958	340.30811	1252.78418	715.17755	387.02756	1091.39319	794.88000	-88.38824
4	0.01200	1179.18115	1421.65063	125.82466	1230.47571	1340.36926	282.42731	1146.75256	1014.62982	291.48953	1281.79089	1274.82422	104.97523	nan	nan	nan	1178.05225	782.36127	368.38492	1156.95508	1144.90466	-104.21814	1153.54175	1036.86194	-119.47788	1153.66455	913.80951	-113.78778	1169.33679	794.76190	-90.67316	1144.62573	720.57599	-134.47235	1115.56458	1030.69312	-24.86769	1217.70349	1039.23889	353.02798	1184.94055	1360.07849	-51.71487	1234.21863	904.62067	353.11938	1251.38599	778.22699	340.18112	1252.50378	715.18756	386.86676	1091.37415	794.78888	-88.30019
5	0.01600	1178.55908	1421.63440	125.90191	1230.06348	1340.46606	282.49777	1146.45972	1014.70056	291.53937	1281.37659	1274.95764	105.01420	nan	nan	nan	1177.76184	782.42114	368.29199	1156.55518	1144.87341	-104.12431	1153.26782	1036.83850	-119.40050	1153.49622	913.77197	-113.70887	1169.42676	794.59491	-90.46969	1144.62378	720.52863	-134.42958	1115.40222	1030.61987	-24.75316	1217.48242	1039.28516	353.00403	1184.33643	1360.07642	-51.63102	1233.95581	904.67847	353.03043	1251.08472	778.26361	340.05548	1252.21912	715.19867	386.71371	1091.35425	794.70068	-88.21774
6	0.02000	1177.92981	1421.61426	125.98183	1229.64331	1340.56750	282.56473	1146.15955	1014.76965	291.58994	1280.96436	1275.10046	105.05324	nan	nan	nan	1177.48804	782.45593	368.19547	1156.15137	1144.84094	-104.03611	1152.99561	1036.81665	-119.33054	1153.33459	913.74231	-113.62904	1169.43005	794.53418	-90.39421	1144.61865	720.47845	-134.38257	1115.24670	1030.53699	-24.64480	1217.23877	1039.33069	352.97870	1183.73462	1360.07520	-51.54253	1233.68542	904.73499	352.93896	1250.78662	778.29694	339.94632	1251.92615	715.21222	386.56622	1091.33826	794.61395	-88.12511
7	0.02400	1177.29089	1421.58899	126.06752	1229.21130	1340.66895	282.63660	1145.85803	1014.84058	291.63434	1280.54138	1275.24817	105.10233	nan	nan	nan	1177.21777	782.47742	368.10059	1155.76099	1144.81873	-103.94352	1152.72986	1036.79016	-119.25866	1153.18054	913.71582	-113.55799	1169.41504	794.50269	-90.34071	1144.61304	720.43024	-134.32991	1115.09033	1030.45129	-24.52785	1216.99524	1039.37390	352.95392	1183.13672	1360.07727	-51.45626	1233.41650	904.78015	352.85172	1250.48682	778.32910	339.83511	1251.62854	715.22229	386.41977	1091.32007	794.52887	-88.03226
